<svg width="800" height="450" viewBox="0 0 800 450" fill="none" xmlns="http://www.w3.org/2000/svg">
  <rect width="800" height="450" rx="8" fill="#F8FAFC"/>
  <rect x="20" y="20" width="180" height="410" rx="6" fill="#F1F5F9"/>
  <rect x="40" y="40" width="140" height="40" rx="4" fill="#E2E8F0"/>
  <rect x="40" y="100" width="140" height="30" rx="4" fill="#CBD5E1"/>
  <rect x="40" y="140" width="140" height="30" rx="4" fill="#E2E8F0"/>
  <rect x="40" y="180" width="140" height="30" rx="4" fill="#E2E8F0"/>
  <rect x="40" y="220" width="140" height="30" rx="4" fill="#E2E8F0"/>
  <rect x="40" y="260" width="140" height="30" rx="4" fill="#E2E8F0"/>
  <rect x="220" y="20" width="560" height="70" rx="6" fill="#F1F5F9"/>
  <rect x="240" y="40" width="240" height="30" rx="4" fill="#E2E8F0"/>
  <rect x="680" y="40" width="80" height="30" rx="4" fill="#CBD5E1"/>
  <rect x="220" y="110" width="270" height="150" rx="6" fill="#F1F5F9"/>
  <rect x="240" y="130" width="180" height="30" rx="4" fill="#E2E8F0"/>
  <rect x="240" y="180" width="230" height="60" rx="4" fill="#CBD5E1"/>
  <rect x="510" y="110" width="270" height="150" rx="6" fill="#F1F5F9"/>
  <rect x="530" y="130" width="180" height="30" rx="4" fill="#E2E8F0"/>
  <circle cx="645" cy="185" r="50" fill="#CBD5E1"/>
  <rect x="220" y="280" width="560" height="150" rx="6" fill="#F1F5F9"/>
  <rect x="240" y="300" width="180" height="30" rx="4" fill="#E2E8F0"/>
  <rect x="240" y="350" width="520" height="60" rx="4" fill="#CBD5E1"/>
  <text x="400" y="225" fill="#94A3B8" font-family="Arial" font-size="16" text-anchor="middle">Dax Dashboard Preview</text>
</svg> 